<mxfile host="Electron" modified="2024-02-16T23:46:43.857Z" agent="Mozilla/5.0 (Windows NT 10.0; Win64; x64) AppleWebKit/537.36 (KHTML, like Gecko) draw.io/22.1.21 Chrome/120.0.6099.109 Electron/28.1.0 Safari/537.36" etag="Zuy5eNBnt1-9jD-O95Gv" version="22.1.21" type="device">
  <diagram name="Page-1" id="VgCRoe7TBTfTwidw6Qzn">
    <mxGraphModel dx="1886" dy="900" grid="1" gridSize="10" guides="1" tooltips="1" connect="1" arrows="1" fold="1" page="1" pageScale="1" pageWidth="850" pageHeight="1100" math="0" shadow="0">
      <root>
        <mxCell id="0" />
        <mxCell id="1" parent="0" />
        <mxCell id="5Ck918NxYZweuPMsiYU0-5" style="edgeStyle=orthogonalEdgeStyle;rounded=0;orthogonalLoop=1;jettySize=auto;html=1;" parent="1" source="5Ck918NxYZweuPMsiYU0-1" target="5Ck918NxYZweuPMsiYU0-3" edge="1">
          <mxGeometry relative="1" as="geometry" />
        </mxCell>
        <mxCell id="5Ck918NxYZweuPMsiYU0-1" value="" style="rounded=0;whiteSpace=wrap;html=1;" parent="1" vertex="1">
          <mxGeometry x="200" y="230" width="120" height="60" as="geometry" />
        </mxCell>
        <mxCell id="5Ck918NxYZweuPMsiYU0-2" value="E_W8_CURSOR" style="text;html=1;align=center;verticalAlign=middle;resizable=0;points=[];autosize=1;strokeColor=none;fillColor=none;fontColor=#9933FF;fontStyle=1" parent="1" vertex="1">
          <mxGeometry x="270" y="200" width="110" height="30" as="geometry" />
        </mxCell>
        <mxCell id="5Ck918NxYZweuPMsiYU0-6" style="edgeStyle=orthogonalEdgeStyle;rounded=0;orthogonalLoop=1;jettySize=auto;html=1;entryX=0;entryY=0.5;entryDx=0;entryDy=0;" parent="1" source="5Ck918NxYZweuPMsiYU0-3" target="5Ck918NxYZweuPMsiYU0-1" edge="1">
          <mxGeometry relative="1" as="geometry">
            <Array as="points">
              <mxPoint x="180" y="380" />
              <mxPoint x="180" y="260" />
            </Array>
          </mxGeometry>
        </mxCell>
        <mxCell id="4kFPml6liKpjlxStqmfi-11" style="edgeStyle=orthogonalEdgeStyle;rounded=0;orthogonalLoop=1;jettySize=auto;html=1;entryX=0;entryY=0.5;entryDx=0;entryDy=0;" parent="1" source="5Ck918NxYZweuPMsiYU0-3" target="5Ck918NxYZweuPMsiYU0-11" edge="1">
          <mxGeometry relative="1" as="geometry" />
        </mxCell>
        <mxCell id="5Ck918NxYZweuPMsiYU0-3" value="ACTION" style="rhombus;whiteSpace=wrap;html=1;fontColor=#00CC00;" parent="1" vertex="1">
          <mxGeometry x="220" y="340" width="80" height="80" as="geometry" />
        </mxCell>
        <mxCell id="5Ck918NxYZweuPMsiYU0-4" value="Action es UPDATE_CURSOR &lt;br&gt;or TOGGLE_CURSOR" style="text;html=1;align=center;verticalAlign=middle;resizable=0;points=[];autosize=1;strokeColor=none;fillColor=none;" parent="1" vertex="1">
          <mxGeometry y="270" width="180" height="40" as="geometry" />
        </mxCell>
        <mxCell id="5Ck918NxYZweuPMsiYU0-7" value="0" style="text;html=1;align=center;verticalAlign=middle;resizable=0;points=[];autosize=1;strokeColor=none;fillColor=none;" parent="1" vertex="1">
          <mxGeometry x="195" y="350" width="30" height="30" as="geometry" />
        </mxCell>
        <mxCell id="5Ck918NxYZweuPMsiYU0-8" value="1" style="text;html=1;align=center;verticalAlign=middle;resizable=0;points=[];autosize=1;strokeColor=none;fillColor=none;" parent="1" vertex="1">
          <mxGeometry x="295" y="340" width="30" height="30" as="geometry" />
        </mxCell>
        <mxCell id="5Ck918NxYZweuPMsiYU0-12" style="edgeStyle=orthogonalEdgeStyle;rounded=0;orthogonalLoop=1;jettySize=auto;html=1;" parent="1" source="5Ck918NxYZweuPMsiYU0-10" target="5Ck918NxYZweuPMsiYU0-11" edge="1">
          <mxGeometry relative="1" as="geometry" />
        </mxCell>
        <mxCell id="5Ck918NxYZweuPMsiYU0-10" value="LD_CURSOR" style="ellipse;whiteSpace=wrap;html=1;fontColor=#FF0000;" parent="1" vertex="1">
          <mxGeometry x="320" y="350" width="120" height="60" as="geometry" />
        </mxCell>
        <mxCell id="4kFPml6liKpjlxStqmfi-10" style="edgeStyle=orthogonalEdgeStyle;rounded=0;orthogonalLoop=1;jettySize=auto;html=1;" parent="1" source="5Ck918NxYZweuPMsiYU0-11" target="5Ck918NxYZweuPMsiYU0-16" edge="1">
          <mxGeometry relative="1" as="geometry">
            <Array as="points">
              <mxPoint x="565" y="470" />
              <mxPoint x="330" y="470" />
            </Array>
          </mxGeometry>
        </mxCell>
        <mxCell id="5Ck918NxYZweuPMsiYU0-11" value="LD_COORDS" style="whiteSpace=wrap;html=1;fontColor=#FF0000;" parent="1" vertex="1">
          <mxGeometry x="505" y="350" width="120" height="60" as="geometry" />
        </mxCell>
        <mxCell id="5Ck918NxYZweuPMsiYU0-13" value="E_TRADUCCION1" style="text;html=1;align=center;verticalAlign=middle;resizable=0;points=[];autosize=1;strokeColor=none;fillColor=none;fontColor=#9933FF;fontStyle=1" parent="1" vertex="1">
          <mxGeometry x="560" y="320" width="130" height="30" as="geometry" />
        </mxCell>
        <mxCell id="5Ck918NxYZweuPMsiYU0-18" style="edgeStyle=orthogonalEdgeStyle;rounded=0;orthogonalLoop=1;jettySize=auto;html=1;" parent="1" source="5Ck918NxYZweuPMsiYU0-16" target="5Ck918NxYZweuPMsiYU0-17" edge="1">
          <mxGeometry relative="1" as="geometry" />
        </mxCell>
        <mxCell id="5Ck918NxYZweuPMsiYU0-53" style="edgeStyle=orthogonalEdgeStyle;rounded=0;orthogonalLoop=1;jettySize=auto;html=1;entryX=0;entryY=0.5;entryDx=0;entryDy=0;exitX=0.5;exitY=1;exitDx=0;exitDy=0;" parent="1" source="5Ck918NxYZweuPMsiYU0-16" target="Gd9_mcR4-yBQDMMwCmG8-1" edge="1">
          <mxGeometry relative="1" as="geometry">
            <mxPoint x="360" y="630" as="sourcePoint" />
            <mxPoint x="360" y="690" as="targetPoint" />
            <Array as="points">
              <mxPoint x="330" y="808" />
            </Array>
          </mxGeometry>
        </mxCell>
        <mxCell id="5Ck918NxYZweuPMsiYU0-16" value="UPDATE_CURSOR" style="rhombus;whiteSpace=wrap;html=1;fontColor=#0000FF;fontStyle=1" parent="1" vertex="1">
          <mxGeometry x="262" y="510" width="136" height="120" as="geometry" />
        </mxCell>
        <mxCell id="5Ck918NxYZweuPMsiYU0-19" style="edgeStyle=orthogonalEdgeStyle;rounded=0;orthogonalLoop=1;jettySize=auto;html=1;entryX=1;entryY=0.5;entryDx=0;entryDy=0;" parent="1" source="5Ck918NxYZweuPMsiYU0-17" target="5Ck918NxYZweuPMsiYU0-1" edge="1">
          <mxGeometry relative="1" as="geometry">
            <Array as="points">
              <mxPoint x="758" y="260" />
            </Array>
          </mxGeometry>
        </mxCell>
        <mxCell id="5Ck918NxYZweuPMsiYU0-54" style="edgeStyle=orthogonalEdgeStyle;rounded=0;orthogonalLoop=1;jettySize=auto;html=1;entryX=0.5;entryY=0;entryDx=0;entryDy=0;" parent="1" target="5Ck918NxYZweuPMsiYU0-22" edge="1">
          <mxGeometry relative="1" as="geometry">
            <mxPoint x="523" y="629.9999999999998" as="sourcePoint" />
          </mxGeometry>
        </mxCell>
        <mxCell id="5Ck918NxYZweuPMsiYU0-17" value="TOGGLE_CURSOR" style="rhombus;whiteSpace=wrap;html=1;fontColor=#0000FF;fontStyle=1" parent="1" vertex="1">
          <mxGeometry x="455" y="510" width="136" height="120" as="geometry" />
        </mxCell>
        <mxCell id="5Ck918NxYZweuPMsiYU0-22" value="WR&lt;br&gt;RD" style="whiteSpace=wrap;html=1;fontColor=#FF0000;" parent="1" vertex="1">
          <mxGeometry x="463" y="690" width="120" height="60" as="geometry" />
        </mxCell>
        <mxCell id="5Ck918NxYZweuPMsiYU0-23" value="E_FLIP" style="text;html=1;align=center;verticalAlign=middle;resizable=0;points=[];autosize=1;strokeColor=none;fillColor=none;fontColor=#9933FF;fontStyle=1" parent="1" vertex="1">
          <mxGeometry x="555" y="660" width="60" height="30" as="geometry" />
        </mxCell>
        <mxCell id="5Ck918NxYZweuPMsiYU0-30" style="edgeStyle=orthogonalEdgeStyle;rounded=0;orthogonalLoop=1;jettySize=auto;html=1;" parent="1" source="5Ck918NxYZweuPMsiYU0-25" target="5Ck918NxYZweuPMsiYU0-29" edge="1">
          <mxGeometry relative="1" as="geometry" />
        </mxCell>
        <mxCell id="5Ck918NxYZweuPMsiYU0-25" value="DRAW_CUAD" style="whiteSpace=wrap;html=1;fontColor=#0000FF;fontStyle=1" parent="1" vertex="1">
          <mxGeometry x="390" y="870" width="120" height="60" as="geometry" />
        </mxCell>
        <mxCell id="5Ck918NxYZweuPMsiYU0-28" value="E_DRAWCUAD" style="text;html=1;align=center;verticalAlign=middle;resizable=0;points=[];autosize=1;strokeColor=none;fillColor=none;fontColor=#9933FF;fontStyle=1" parent="1" vertex="1">
          <mxGeometry x="455" y="840" width="110" height="30" as="geometry" />
        </mxCell>
        <mxCell id="5Ck918NxYZweuPMsiYU0-31" style="edgeStyle=orthogonalEdgeStyle;rounded=0;orthogonalLoop=1;jettySize=auto;html=1;entryX=0;entryY=0.75;entryDx=0;entryDy=0;" parent="1" source="5Ck918NxYZweuPMsiYU0-29" target="5Ck918NxYZweuPMsiYU0-25" edge="1">
          <mxGeometry relative="1" as="geometry">
            <Array as="points">
              <mxPoint x="370" y="1000" />
              <mxPoint x="370" y="915" />
            </Array>
          </mxGeometry>
        </mxCell>
        <mxCell id="5Ck918NxYZweuPMsiYU0-33" style="edgeStyle=orthogonalEdgeStyle;rounded=0;orthogonalLoop=1;jettySize=auto;html=1;entryX=0.5;entryY=0;entryDx=0;entryDy=0;" parent="1" target="5Ck918NxYZweuPMsiYU0-32" edge="1">
          <mxGeometry relative="1" as="geometry">
            <mxPoint x="350" y="1140" as="sourcePoint" />
          </mxGeometry>
        </mxCell>
        <mxCell id="5Ck918NxYZweuPMsiYU0-29" value="DONE_FIG" style="rhombus;whiteSpace=wrap;html=1;fontColor=#0000FF;fontStyle=1" parent="1" vertex="1">
          <mxGeometry x="410" y="960" width="80" height="80" as="geometry" />
        </mxCell>
        <mxCell id="5Ck918NxYZweuPMsiYU0-34" style="edgeStyle=orthogonalEdgeStyle;rounded=0;orthogonalLoop=1;jettySize=auto;html=1;entryX=0;entryY=0.5;entryDx=0;entryDy=0;" parent="1" source="5Ck918NxYZweuPMsiYU0-32" target="PBL5qmY1Wt7oBb2tE32C-1" edge="1">
          <mxGeometry relative="1" as="geometry">
            <mxPoint x="540" y="1240" as="targetPoint" />
          </mxGeometry>
        </mxCell>
        <mxCell id="5Ck918NxYZweuPMsiYU0-35" style="edgeStyle=orthogonalEdgeStyle;rounded=0;orthogonalLoop=1;jettySize=auto;html=1;" parent="1" source="5Ck918NxYZweuPMsiYU0-32" edge="1">
          <mxGeometry relative="1" as="geometry">
            <mxPoint x="190" y="1240" as="targetPoint" />
          </mxGeometry>
        </mxCell>
        <mxCell id="5Ck918NxYZweuPMsiYU0-32" value="TOGGLE_CURSOR" style="rhombus;whiteSpace=wrap;html=1;fontColor=#0000FF;fontStyle=1" parent="1" vertex="1">
          <mxGeometry x="282" y="1180" width="136" height="120" as="geometry" />
        </mxCell>
        <mxCell id="5Ck918NxYZweuPMsiYU0-39" style="edgeStyle=orthogonalEdgeStyle;rounded=0;orthogonalLoop=1;jettySize=auto;html=1;" parent="1" target="5Ck918NxYZweuPMsiYU0-38" edge="1">
          <mxGeometry relative="1" as="geometry">
            <mxPoint x="132" y="1270" as="sourcePoint" />
          </mxGeometry>
        </mxCell>
        <mxCell id="4kFPml6liKpjlxStqmfi-5" style="edgeStyle=orthogonalEdgeStyle;rounded=0;orthogonalLoop=1;jettySize=auto;html=1;entryX=0.5;entryY=0;entryDx=0;entryDy=0;" parent="1" source="5Ck918NxYZweuPMsiYU0-38" target="SqGMaTvTvrHJJoMI4LME-1" edge="1">
          <mxGeometry relative="1" as="geometry">
            <mxPoint x="132" y="1393" as="targetPoint" />
          </mxGeometry>
        </mxCell>
        <mxCell id="5Ck918NxYZweuPMsiYU0-38" value="LD_CURSOR" style="whiteSpace=wrap;html=1;fontColor=#FF0000;" parent="1" vertex="1">
          <mxGeometry x="72" y="1310" width="120" height="60" as="geometry" />
        </mxCell>
        <mxCell id="5Ck918NxYZweuPMsiYU0-40" value="0" style="text;html=1;align=center;verticalAlign=middle;resizable=0;points=[];autosize=1;strokeColor=none;fillColor=none;" parent="1" vertex="1">
          <mxGeometry x="252" y="1208" width="30" height="30" as="geometry" />
        </mxCell>
        <mxCell id="5Ck918NxYZweuPMsiYU0-41" value="1" style="text;html=1;align=center;verticalAlign=middle;resizable=0;points=[];autosize=1;strokeColor=none;fillColor=none;" parent="1" vertex="1">
          <mxGeometry x="425" y="1208" width="30" height="30" as="geometry" />
        </mxCell>
        <mxCell id="5Ck918NxYZweuPMsiYU0-42" value="" style="whiteSpace=wrap;html=1;" parent="1" vertex="1">
          <mxGeometry x="680" y="1530" width="120" height="60" as="geometry" />
        </mxCell>
        <mxCell id="5Ck918NxYZweuPMsiYU0-47" value="E_ESPERA" style="text;html=1;align=center;verticalAlign=middle;resizable=0;points=[];autosize=1;strokeColor=none;fillColor=none;fontColor=#9933FF;fontStyle=1" parent="1" vertex="1">
          <mxGeometry x="135" y="1270" width="90" height="30" as="geometry" />
        </mxCell>
        <mxCell id="5Ck918NxYZweuPMsiYU0-82" style="edgeStyle=orthogonalEdgeStyle;rounded=0;orthogonalLoop=1;jettySize=auto;html=1;entryX=0.5;entryY=0;entryDx=0;entryDy=0;" parent="1" source="5Ck918NxYZweuPMsiYU0-51" target="5Ck918NxYZweuPMsiYU0-63" edge="1">
          <mxGeometry relative="1" as="geometry" />
        </mxCell>
        <mxCell id="5Ck918NxYZweuPMsiYU0-51" value="LD_COORDS" style="whiteSpace=wrap;html=1;fontColor=#FF0000;" parent="1" vertex="1">
          <mxGeometry x="290" y="1423" width="120" height="60" as="geometry" />
        </mxCell>
        <mxCell id="5Ck918NxYZweuPMsiYU0-52" value="E_TRADUCCION2" style="text;html=1;align=center;verticalAlign=middle;resizable=0;points=[];autosize=1;strokeColor=none;fillColor=none;fontColor=#9933FF;fontStyle=1" parent="1" vertex="1">
          <mxGeometry x="348" y="1395" width="130" height="30" as="geometry" />
        </mxCell>
        <mxCell id="5Ck918NxYZweuPMsiYU0-55" value="0" style="text;html=1;align=center;verticalAlign=middle;resizable=0;points=[];autosize=1;strokeColor=none;fillColor=none;" parent="1" vertex="1">
          <mxGeometry x="535" y="480" width="30" height="30" as="geometry" />
        </mxCell>
        <mxCell id="5Ck918NxYZweuPMsiYU0-56" value="&lt;span style=&quot;color: rgb(0, 0, 0); font-family: Helvetica; font-size: 12px; font-style: normal; font-variant-ligatures: normal; font-variant-caps: normal; font-weight: 400; letter-spacing: normal; orphans: 2; text-align: center; text-indent: 0px; text-transform: none; widows: 2; word-spacing: 0px; -webkit-text-stroke-width: 0px; background-color: rgb(251, 251, 251); text-decoration-thickness: initial; text-decoration-style: initial; text-decoration-color: initial; float: none; display: inline !important;&quot;&gt;1&lt;/span&gt;" style="text;html=1;align=center;verticalAlign=middle;resizable=0;points=[];autosize=1;strokeColor=none;fillColor=none;" parent="1" vertex="1">
          <mxGeometry x="335" y="630" width="30" height="30" as="geometry" />
        </mxCell>
        <mxCell id="5Ck918NxYZweuPMsiYU0-57" value="&lt;span style=&quot;color: rgb(0, 0, 0); font-family: Helvetica; font-size: 12px; font-style: normal; font-variant-ligatures: normal; font-variant-caps: normal; font-weight: 400; letter-spacing: normal; orphans: 2; text-align: center; text-indent: 0px; text-transform: none; widows: 2; word-spacing: 0px; -webkit-text-stroke-width: 0px; background-color: rgb(251, 251, 251); text-decoration-thickness: initial; text-decoration-style: initial; text-decoration-color: initial; float: none; display: inline !important;&quot;&gt;1&lt;/span&gt;" style="text;html=1;align=center;verticalAlign=middle;resizable=0;points=[];autosize=1;strokeColor=none;fillColor=none;" parent="1" vertex="1">
          <mxGeometry x="530" y="630" width="30" height="30" as="geometry" />
        </mxCell>
        <mxCell id="5Ck918NxYZweuPMsiYU0-58" value="0" style="text;html=1;align=center;verticalAlign=middle;resizable=0;points=[];autosize=1;strokeColor=none;fillColor=none;" parent="1" vertex="1">
          <mxGeometry x="405" y="530" width="30" height="30" as="geometry" />
        </mxCell>
        <mxCell id="5Ck918NxYZweuPMsiYU0-59" value="0" style="text;html=1;align=center;verticalAlign=middle;resizable=0;points=[];autosize=1;strokeColor=none;fillColor=none;" parent="1" vertex="1">
          <mxGeometry x="375" y="968" width="30" height="30" as="geometry" />
        </mxCell>
        <mxCell id="5Ck918NxYZweuPMsiYU0-60" value="1" style="text;html=1;align=center;verticalAlign=middle;resizable=0;points=[];autosize=1;strokeColor=none;fillColor=none;" parent="1" vertex="1">
          <mxGeometry x="355" y="1138" width="30" height="30" as="geometry" />
        </mxCell>
        <mxCell id="5Ck918NxYZweuPMsiYU0-66" style="edgeStyle=orthogonalEdgeStyle;rounded=0;orthogonalLoop=1;jettySize=auto;html=1;" parent="1" source="5Ck918NxYZweuPMsiYU0-63" target="5Ck918NxYZweuPMsiYU0-65" edge="1">
          <mxGeometry relative="1" as="geometry" />
        </mxCell>
        <mxCell id="5Ck918NxYZweuPMsiYU0-63" value="DRAW_TRIA" style="whiteSpace=wrap;html=1;fontColor=#0000FF;fontStyle=1" parent="1" vertex="1">
          <mxGeometry x="290" y="1530" width="120" height="60" as="geometry" />
        </mxCell>
        <mxCell id="5Ck918NxYZweuPMsiYU0-64" value="E_DRAWTRIA" style="text;html=1;align=center;verticalAlign=middle;resizable=0;points=[];autosize=1;strokeColor=none;fillColor=none;fontColor=#9933FF;fontStyle=1" parent="1" vertex="1">
          <mxGeometry x="360" y="1500" width="100" height="30" as="geometry" />
        </mxCell>
        <mxCell id="5Ck918NxYZweuPMsiYU0-67" style="edgeStyle=orthogonalEdgeStyle;rounded=0;orthogonalLoop=1;jettySize=auto;html=1;entryX=0;entryY=0.75;entryDx=0;entryDy=0;" parent="1" source="5Ck918NxYZweuPMsiYU0-65" target="5Ck918NxYZweuPMsiYU0-63" edge="1">
          <mxGeometry relative="1" as="geometry">
            <Array as="points">
              <mxPoint x="270" y="1660" />
              <mxPoint x="270" y="1575" />
            </Array>
          </mxGeometry>
        </mxCell>
        <mxCell id="5Ck918NxYZweuPMsiYU0-68" style="edgeStyle=orthogonalEdgeStyle;rounded=0;orthogonalLoop=1;jettySize=auto;html=1;" parent="1" source="5Ck918NxYZweuPMsiYU0-65" edge="1">
          <mxGeometry relative="1" as="geometry">
            <mxPoint x="350" y="1740" as="targetPoint" />
          </mxGeometry>
        </mxCell>
        <mxCell id="5Ck918NxYZweuPMsiYU0-65" value="DONE_FIG" style="rhombus;whiteSpace=wrap;html=1;fontColor=#0000FF;fontStyle=1" parent="1" vertex="1">
          <mxGeometry x="310" y="1620" width="80" height="80" as="geometry" />
        </mxCell>
        <mxCell id="5Ck918NxYZweuPMsiYU0-74" style="edgeStyle=orthogonalEdgeStyle;rounded=0;orthogonalLoop=1;jettySize=auto;html=1;entryX=1;entryY=0.5;entryDx=0;entryDy=0;" parent="1" source="5Ck918NxYZweuPMsiYU0-69" target="5Ck918NxYZweuPMsiYU0-73" edge="1">
          <mxGeometry relative="1" as="geometry" />
        </mxCell>
        <mxCell id="5Ck918NxYZweuPMsiYU0-75" style="edgeStyle=orthogonalEdgeStyle;rounded=0;orthogonalLoop=1;jettySize=auto;html=1;" parent="1" source="5Ck918NxYZweuPMsiYU0-69" target="5Ck918NxYZweuPMsiYU0-72" edge="1">
          <mxGeometry relative="1" as="geometry" />
        </mxCell>
        <mxCell id="5Ck918NxYZweuPMsiYU0-69" value="TOGGLE_CURSOR" style="rhombus;whiteSpace=wrap;html=1;fontColor=#0000FF;fontStyle=1" parent="1" vertex="1">
          <mxGeometry x="282" y="1740" width="136" height="120" as="geometry" />
        </mxCell>
        <mxCell id="5Ck918NxYZweuPMsiYU0-72" value="DONE_TOGGLE" style="ellipse;whiteSpace=wrap;html=1;fontColor=#0000FF;fontStyle=1" parent="1" vertex="1">
          <mxGeometry x="475" y="1770" width="120" height="60" as="geometry" />
        </mxCell>
        <mxCell id="5Ck918NxYZweuPMsiYU0-73" value="DONE_UPDATE" style="ellipse;whiteSpace=wrap;html=1;fontColor=#0000FF;fontStyle=1" parent="1" vertex="1">
          <mxGeometry x="105" y="1770" width="120" height="60" as="geometry" />
        </mxCell>
        <mxCell id="5Ck918NxYZweuPMsiYU0-77" value="E_W8_CURSOR" style="text;html=1;align=center;verticalAlign=middle;resizable=0;points=[];autosize=1;strokeColor=#666666;fillColor=#f5f5f5;fontColor=#333333;" parent="1" vertex="1">
          <mxGeometry x="295" y="2010" width="110" height="30" as="geometry" />
        </mxCell>
        <mxCell id="5Ck918NxYZweuPMsiYU0-78" style="edgeStyle=orthogonalEdgeStyle;rounded=0;orthogonalLoop=1;jettySize=auto;html=1;entryX=1.009;entryY=0.533;entryDx=0;entryDy=0;entryPerimeter=0;" parent="1" source="5Ck918NxYZweuPMsiYU0-72" target="5Ck918NxYZweuPMsiYU0-77" edge="1">
          <mxGeometry relative="1" as="geometry">
            <Array as="points">
              <mxPoint x="535" y="1926" />
            </Array>
          </mxGeometry>
        </mxCell>
        <mxCell id="5Ck918NxYZweuPMsiYU0-79" style="edgeStyle=orthogonalEdgeStyle;rounded=0;orthogonalLoop=1;jettySize=auto;html=1;entryX=0.009;entryY=0.533;entryDx=0;entryDy=0;entryPerimeter=0;" parent="1" source="5Ck918NxYZweuPMsiYU0-73" target="5Ck918NxYZweuPMsiYU0-77" edge="1">
          <mxGeometry relative="1" as="geometry">
            <Array as="points">
              <mxPoint x="165" y="1926" />
            </Array>
          </mxGeometry>
        </mxCell>
        <mxCell id="5Ck918NxYZweuPMsiYU0-80" value="0" style="text;html=1;align=center;verticalAlign=middle;resizable=0;points=[];autosize=1;strokeColor=none;fillColor=none;" parent="1" vertex="1">
          <mxGeometry x="240" y="1760" width="30" height="30" as="geometry" />
        </mxCell>
        <mxCell id="5Ck918NxYZweuPMsiYU0-81" value="1" style="text;html=1;align=center;verticalAlign=middle;resizable=0;points=[];autosize=1;strokeColor=none;fillColor=none;" parent="1" vertex="1">
          <mxGeometry x="425" y="1760" width="30" height="30" as="geometry" />
        </mxCell>
        <mxCell id="5Ck918NxYZweuPMsiYU0-85" value="Leer estado de la celda&amp;nbsp;&lt;br&gt;o actualizar la celda" style="text;html=1;align=center;verticalAlign=middle;resizable=0;points=[];autosize=1;strokeColor=none;fillColor=none;" parent="1" vertex="1">
          <mxGeometry x="85" y="550" width="150" height="40" as="geometry" />
        </mxCell>
        <mxCell id="5Ck918NxYZweuPMsiYU0-87" value="Espera a que NONO_CURSOR&lt;br&gt;mueva el cursor y actualice los valores,&lt;br&gt;volver a traducir coordenadas" style="text;html=1;align=center;verticalAlign=middle;resizable=0;points=[];autosize=1;strokeColor=none;fillColor=none;" parent="1" vertex="1">
          <mxGeometry x="15" y="1110" width="230" height="60" as="geometry" />
        </mxCell>
        <mxCell id="PBL5qmY1Wt7oBb2tE32C-9" style="edgeStyle=orthogonalEdgeStyle;rounded=0;orthogonalLoop=1;jettySize=auto;html=1;" parent="1" source="PBL5qmY1Wt7oBb2tE32C-1" target="PBL5qmY1Wt7oBb2tE32C-8" edge="1">
          <mxGeometry relative="1" as="geometry" />
        </mxCell>
        <mxCell id="PBL5qmY1Wt7oBb2tE32C-1" value="&lt;font color=&quot;#ff0000&quot;&gt;SEL&lt;br&gt;RD&lt;/font&gt;&lt;br&gt;&lt;font color=&quot;#0000ff&quot;&gt;RD_SOL&lt;/font&gt;" style="whiteSpace=wrap;html=1;" parent="1" vertex="1">
          <mxGeometry x="680" y="1210" width="120" height="60" as="geometry" />
        </mxCell>
        <mxCell id="PBL5qmY1Wt7oBb2tE32C-2" value="E_CHECK_WIN" style="text;html=1;align=center;verticalAlign=middle;resizable=0;points=[];autosize=1;strokeColor=none;fillColor=none;fontColor=#9933FF;fontStyle=1" parent="1" vertex="1">
          <mxGeometry x="740" y="1180" width="110" height="30" as="geometry" />
        </mxCell>
        <mxCell id="PBL5qmY1Wt7oBb2tE32C-4" style="edgeStyle=orthogonalEdgeStyle;rounded=0;orthogonalLoop=1;jettySize=auto;html=1;entryX=1;entryY=0.5;entryDx=0;entryDy=0;" parent="1" source="PBL5qmY1Wt7oBb2tE32C-3" target="5Ck918NxYZweuPMsiYU0-63" edge="1">
          <mxGeometry relative="1" as="geometry" />
        </mxCell>
        <mxCell id="PBL5qmY1Wt7oBb2tE32C-5" style="edgeStyle=orthogonalEdgeStyle;rounded=0;orthogonalLoop=1;jettySize=auto;html=1;" parent="1" source="PBL5qmY1Wt7oBb2tE32C-3" target="5Ck918NxYZweuPMsiYU0-42" edge="1">
          <mxGeometry relative="1" as="geometry" />
        </mxCell>
        <mxCell id="PBL5qmY1Wt7oBb2tE32C-3" value="WIN" style="rhombus;whiteSpace=wrap;html=1;fontColor=#00CC00;" parent="1" vertex="1">
          <mxGeometry x="550" y="1520" width="80" height="80" as="geometry" />
        </mxCell>
        <mxCell id="PBL5qmY1Wt7oBb2tE32C-6" value="CLR_CONT" style="ellipse;whiteSpace=wrap;html=1;fontColor=#FF0000;" parent="1" vertex="1">
          <mxGeometry x="450" y="1210" width="120" height="60" as="geometry" />
        </mxCell>
        <mxCell id="PBL5qmY1Wt7oBb2tE32C-24" style="edgeStyle=orthogonalEdgeStyle;rounded=0;orthogonalLoop=1;jettySize=auto;html=1;" parent="1" source="PBL5qmY1Wt7oBb2tE32C-8" target="PBL5qmY1Wt7oBb2tE32C-23" edge="1">
          <mxGeometry relative="1" as="geometry" />
        </mxCell>
        <mxCell id="PBL5qmY1Wt7oBb2tE32C-8" value="&lt;span style=&quot;font-family: Helvetica; font-size: 12px; font-style: normal; font-variant-ligatures: normal; font-variant-caps: normal; font-weight: 400; letter-spacing: normal; orphans: 2; text-align: center; text-indent: 0px; text-transform: none; widows: 2; word-spacing: 0px; -webkit-text-stroke-width: 0px; background-color: rgb(251, 251, 251); text-decoration-thickness: initial; text-decoration-style: initial; text-decoration-color: initial; float: none; display: inline !important;&quot;&gt;&lt;font color=&quot;#ff0000&quot;&gt;INCR_IF_SAME&lt;br&gt;INCR_CONT&lt;/font&gt;&lt;br&gt;&lt;/span&gt;" style="whiteSpace=wrap;html=1;" parent="1" vertex="1">
          <mxGeometry x="680" y="1310" width="120" height="60" as="geometry" />
        </mxCell>
        <mxCell id="PBL5qmY1Wt7oBb2tE32C-12" style="edgeStyle=orthogonalEdgeStyle;rounded=0;orthogonalLoop=1;jettySize=auto;html=1;entryX=1;entryY=0.5;entryDx=0;entryDy=0;" parent="1" source="PBL5qmY1Wt7oBb2tE32C-10" target="PBL5qmY1Wt7oBb2tE32C-1" edge="1">
          <mxGeometry relative="1" as="geometry">
            <Array as="points">
              <mxPoint x="820" y="1460" />
              <mxPoint x="820" y="1240" />
            </Array>
          </mxGeometry>
        </mxCell>
        <mxCell id="PBL5qmY1Wt7oBb2tE32C-17" style="edgeStyle=orthogonalEdgeStyle;rounded=0;orthogonalLoop=1;jettySize=auto;html=1;" parent="1" source="PBL5qmY1Wt7oBb2tE32C-10" target="PBL5qmY1Wt7oBb2tE32C-3" edge="1">
          <mxGeometry relative="1" as="geometry" />
        </mxCell>
        <mxCell id="PBL5qmY1Wt7oBb2tE32C-10" value="END_CONT" style="rhombus;whiteSpace=wrap;html=1;fontColor=#00CC00;" parent="1" vertex="1">
          <mxGeometry x="550" y="1420" width="80" height="80" as="geometry" />
        </mxCell>
        <mxCell id="PBL5qmY1Wt7oBb2tE32C-11" value="Comprueba si este cambio ha hecho que el &lt;br&gt;jugador tenga la solución del nonograma, si es así, termina la partida" style="text;html=1;align=center;verticalAlign=middle;resizable=0;points=[];autosize=1;strokeColor=none;fillColor=none;" parent="1" vertex="1">
          <mxGeometry x="430" y="1110" width="390" height="40" as="geometry" />
        </mxCell>
        <mxCell id="PBL5qmY1Wt7oBb2tE32C-15" value="0" style="text;html=1;align=center;verticalAlign=middle;resizable=0;points=[];autosize=1;strokeColor=none;fillColor=none;" parent="1" vertex="1">
          <mxGeometry x="630" y="1430" width="30" height="30" as="geometry" />
        </mxCell>
        <mxCell id="PBL5qmY1Wt7oBb2tE32C-18" value="1" style="text;html=1;align=center;verticalAlign=middle;resizable=0;points=[];autosize=1;strokeColor=none;fillColor=none;" parent="1" vertex="1">
          <mxGeometry x="630" y="1520" width="30" height="30" as="geometry" />
        </mxCell>
        <mxCell id="PBL5qmY1Wt7oBb2tE32C-19" value="0" style="text;html=1;align=center;verticalAlign=middle;resizable=0;points=[];autosize=1;strokeColor=none;fillColor=none;" parent="1" vertex="1">
          <mxGeometry x="515" y="1520" width="30" height="30" as="geometry" />
        </mxCell>
        <mxCell id="PBL5qmY1Wt7oBb2tE32C-20" value="E_WIN" style="text;html=1;align=center;verticalAlign=middle;resizable=0;points=[];autosize=1;strokeColor=none;fillColor=none;fontColor=#9933FF;fontStyle=1" parent="1" vertex="1">
          <mxGeometry x="750" y="1500" width="60" height="30" as="geometry" />
        </mxCell>
        <mxCell id="PBL5qmY1Wt7oBb2tE32C-21" style="edgeStyle=orthogonalEdgeStyle;rounded=0;orthogonalLoop=1;jettySize=auto;html=1;" parent="1" source="5Ck918NxYZweuPMsiYU0-42" target="5Ck918NxYZweuPMsiYU0-42" edge="1">
          <mxGeometry relative="1" as="geometry" />
        </mxCell>
        <mxCell id="PBL5qmY1Wt7oBb2tE32C-22" value="1" style="text;html=1;align=center;verticalAlign=middle;resizable=0;points=[];autosize=1;strokeColor=none;fillColor=none;" parent="1" vertex="1">
          <mxGeometry x="595" y="1490" width="30" height="30" as="geometry" />
        </mxCell>
        <mxCell id="PBL5qmY1Wt7oBb2tE32C-25" style="edgeStyle=orthogonalEdgeStyle;rounded=0;orthogonalLoop=1;jettySize=auto;html=1;entryX=0.5;entryY=0;entryDx=0;entryDy=0;" parent="1" source="PBL5qmY1Wt7oBb2tE32C-23" target="PBL5qmY1Wt7oBb2tE32C-10" edge="1">
          <mxGeometry relative="1" as="geometry" />
        </mxCell>
        <mxCell id="PBL5qmY1Wt7oBb2tE32C-23" value="" style="whiteSpace=wrap;html=1;" parent="1" vertex="1">
          <mxGeometry x="680" y="1395" width="120" height="60" as="geometry" />
        </mxCell>
        <mxCell id="PBL5qmY1Wt7oBb2tE32C-27" value="E_W8_RAMS" style="text;html=1;align=center;verticalAlign=middle;resizable=0;points=[];autosize=1;strokeColor=none;fillColor=none;fontColor=#9933FF;fontStyle=1" parent="1" vertex="1">
          <mxGeometry x="635" y="1280" width="100" height="30" as="geometry" />
        </mxCell>
        <mxCell id="PBL5qmY1Wt7oBb2tE32C-28" value="E_INCR_SAMECOUNT" style="text;html=1;align=center;verticalAlign=middle;resizable=0;points=[];autosize=1;strokeColor=none;fillColor=none;fontColor=#9933FF;fontStyle=1" parent="1" vertex="1">
          <mxGeometry x="590" y="1370" width="150" height="30" as="geometry" />
        </mxCell>
        <mxCell id="Gd9_mcR4-yBQDMMwCmG8-1" value="RD" style="whiteSpace=wrap;html=1;fontColor=#FF0000;" parent="1" vertex="1">
          <mxGeometry x="390" y="778" width="120" height="60" as="geometry" />
        </mxCell>
        <mxCell id="Gd9_mcR4-yBQDMMwCmG8-3" style="edgeStyle=orthogonalEdgeStyle;rounded=0;orthogonalLoop=1;jettySize=auto;html=1;entryX=1;entryY=0.5;entryDx=0;entryDy=0;" parent="1" source="5Ck918NxYZweuPMsiYU0-22" target="Gd9_mcR4-yBQDMMwCmG8-1" edge="1">
          <mxGeometry relative="1" as="geometry">
            <mxPoint x="520" y="810" as="targetPoint" />
            <Array as="points">
              <mxPoint x="524" y="808" />
            </Array>
          </mxGeometry>
        </mxCell>
        <mxCell id="Gd9_mcR4-yBQDMMwCmG8-4" style="edgeStyle=orthogonalEdgeStyle;rounded=0;orthogonalLoop=1;jettySize=auto;html=1;entryX=0.503;entryY=0.024;entryDx=0;entryDy=0;entryPerimeter=0;" parent="1" source="Gd9_mcR4-yBQDMMwCmG8-1" target="5Ck918NxYZweuPMsiYU0-25" edge="1">
          <mxGeometry relative="1" as="geometry" />
        </mxCell>
        <mxCell id="Gd9_mcR4-yBQDMMwCmG8-5" value="E_READ" style="text;html=1;align=center;verticalAlign=middle;resizable=0;points=[];autosize=1;strokeColor=none;fillColor=none;fontColor=#9933FF;fontStyle=1" parent="1" vertex="1">
          <mxGeometry x="435" y="750" width="70" height="30" as="geometry" />
        </mxCell>
        <mxCell id="4kFPml6liKpjlxStqmfi-1" style="edgeStyle=orthogonalEdgeStyle;rounded=0;orthogonalLoop=1;jettySize=auto;html=1;entryX=0.5;entryY=0;entryDx=0;entryDy=0;" parent="1" edge="1">
          <mxGeometry relative="1" as="geometry">
            <mxPoint x="449.75" y="1040" as="sourcePoint" />
            <mxPoint x="449.75" y="1080" as="targetPoint" />
          </mxGeometry>
        </mxCell>
        <mxCell id="4kFPml6liKpjlxStqmfi-2" value="1" style="text;html=1;align=center;verticalAlign=middle;resizable=0;points=[];autosize=1;strokeColor=none;fillColor=none;" parent="1" vertex="1">
          <mxGeometry x="455" y="1030" width="30" height="30" as="geometry" />
        </mxCell>
        <mxCell id="4kFPml6liKpjlxStqmfi-7" style="edgeStyle=orthogonalEdgeStyle;rounded=0;orthogonalLoop=1;jettySize=auto;html=1;entryX=0;entryY=0.5;entryDx=0;entryDy=0;exitX=0.983;exitY=0.5;exitDx=0;exitDy=0;exitPerimeter=0;" parent="1" source="SqGMaTvTvrHJJoMI4LME-1" target="5Ck918NxYZweuPMsiYU0-51" edge="1">
          <mxGeometry relative="1" as="geometry">
            <mxPoint x="200" y="1453" as="sourcePoint" />
          </mxGeometry>
        </mxCell>
        <mxCell id="4kFPml6liKpjlxStqmfi-8" value="1" style="text;html=1;align=center;verticalAlign=middle;resizable=0;points=[];autosize=1;strokeColor=none;fillColor=none;" parent="1" vertex="1">
          <mxGeometry x="195" y="1418" width="30" height="30" as="geometry" />
        </mxCell>
        <mxCell id="SqGMaTvTvrHJJoMI4LME-1" value="LD_CURSOR" style="whiteSpace=wrap;html=1;fontColor=#FF0000;" vertex="1" parent="1">
          <mxGeometry x="72" y="1423" width="120" height="60" as="geometry" />
        </mxCell>
        <mxCell id="SqGMaTvTvrHJJoMI4LME-2" value="E_ESPERA2" style="text;html=1;align=center;verticalAlign=middle;resizable=0;points=[];autosize=1;strokeColor=none;fillColor=none;fontColor=#9933FF;fontStyle=1" vertex="1" parent="1">
          <mxGeometry x="145" y="1393" width="90" height="30" as="geometry" />
        </mxCell>
        <mxCell id="SqGMaTvTvrHJJoMI4LME-3" value="&lt;font color=&quot;#0000ff&quot;&gt;DONE_UPDATE&lt;/font&gt;" style="whiteSpace=wrap;html=1;" vertex="1" parent="1">
          <mxGeometry x="70" y="1210" width="120" height="60" as="geometry" />
        </mxCell>
        <mxCell id="SqGMaTvTvrHJJoMI4LME-4" value="E_DONE_UPDATE" style="text;html=1;align=center;verticalAlign=middle;resizable=0;points=[];autosize=1;strokeColor=none;fillColor=none;fontColor=#9933FF;fontStyle=1" vertex="1" parent="1">
          <mxGeometry x="125" y="1180" width="130" height="30" as="geometry" />
        </mxCell>
      </root>
    </mxGraphModel>
  </diagram>
</mxfile>
